<?xml version="1.0" encoding="UTF-8"?>
<svg id="Capa_1" xmlns="http://www.w3.org/2000/svg" version="1.1" viewBox="0 0 566.8 34.5">
  <!-- Generator: Adobe Illustrator 29.0.0, SVG Export Plug-In . SVG Version: 2.1.0 Build 186)  -->
  <defs>
    <style>
      .st0 {
        fill: #333;
      }
    </style>
  </defs>
  <g>
    <path class="st0" d="M75,34.2V2.7h10.7c8,0,15.6,4.7,15.6,15.7s-7.6,15.8-15.6,15.8h-10.7ZM84.7,27.3c4.3,0,8.5-2,8.5-8.9s-4.2-8.9-8.5-8.9h-1.8v17.8h1.8Z"/>
    <path class="st0" d="M111.2,24.7c.5,2.7,2.2,4.1,5,4.1s3.4-.8,4.5-2.4l5.7,2.1c-1.9,3.5-5.1,6-10.6,6-8.2,0-11.4-6.3-11.4-11.7s3.7-11.7,11.5-11.7,11,6.5,11,11.2v2.3h-15.7ZM111.3,19.9h8.7c-.3-1.9-1.8-3.5-4.3-3.5s-3.7,1.1-4.4,3.5Z"/>
    <path class="st0" d="M152.3,27.9c-2,4.5-5.6,6.6-10.9,6.6s-11.7-5.3-11.7-11.7,4.3-11.7,11.7-11.7,9.1,2.2,10.9,6.7l-6.5,2.7c-.7-1.8-2-3.1-4.1-3.1s-4.3,2.3-4.3,5.4,1.4,5.4,4.4,5.4,3.3-1.1,4.3-3l6.3,2.7Z"/>
    <path class="st0" d="M162.9,2.3v31.9h-7.4V2.3h7.4Z"/>
    <path class="st0" d="M176.6,11.1c2.5,0,4.7.8,5.9,2.2v-1.8h7.4v22.7h-7.4v-1.9c-1.2,1.5-3.6,2.3-5.8,2.3-6.2,0-10.3-4.5-10.3-11.7s4.1-11.7,10.2-11.7ZM178.3,28.2c2.4,0,4.6-1.7,4.6-5.4s-2.2-5.4-4.6-5.4-4.6,1.7-4.6,5.4,2.2,5.4,4.6,5.4Z"/>
    <path class="st0" d="M195,34.2V11.5h7.4v2.5c1.2-1.7,3.6-2.8,6.3-2.8s1.5.1,1.9.3v7c-.7-.4-1.9-.6-2.9-.6-2.6,0-5.4,2.2-5.4,8.3v8.1h-7.4Z"/>
    <path class="st0" d="M222,11.1c2.5,0,4.7.8,5.9,2.2v-1.8h7.4v22.7h-7.4v-1.9c-1.2,1.5-3.6,2.3-5.8,2.3-6.2,0-10.3-4.5-10.3-11.7s4.1-11.7,10.2-11.7ZM223.7,28.2c2.4,0,4.6-1.7,4.6-5.4s-2.2-5.4-4.6-5.4-4.6,1.7-4.6,5.4,2.2,5.4,4.6,5.4Z"/>
    <path class="st0" d="M262,27.9c-2,4.5-5.6,6.6-10.9,6.6s-11.7-5.3-11.7-11.7,4.3-11.7,11.7-11.7,9.1,2.2,10.9,6.7l-6.5,2.7c-.7-1.8-2-3.1-4.1-3.1s-4.3,2.3-4.3,5.4,1.4,5.4,4.4,5.4,3.3-1.1,4.3-3l6.3,2.7Z"/>
    <path class="st0" d="M269.3,0c2.5,0,4.4,1.9,4.4,4.4s-1.9,4.4-4.4,4.4-4.4-1.9-4.4-4.4,1.9-4.4,4.4-4.4ZM273,11.5v22.7h-7.4V11.5h7.4Z"/>
    <path class="st0" d="M288.5,11.1c7.9,0,12,5.4,12,11.7s-4.1,11.7-12,11.7-12-5.4-12-11.7,4-11.7,12-11.7ZM288.5,28.2c3.1,0,4.6-2.2,4.6-5.4s-1.4-5.4-4.6-5.4-4.6,2.2-4.6,5.4,1.4,5.4,4.6,5.4ZM287.2,2.3h9.4l-6.8,7.2h-5.4l2.8-7.2Z"/>
    <path class="st0" d="M311.8,11.5v2.6c1.2-1.8,3.6-3,6.4-3,5.2,0,7.6,2.7,7.6,7.5v15.6h-7.4v-13.4c0-1.9-.9-3.1-2.6-3.1-2.5,0-4.1,2.2-4.1,6.5v9.9h-7.4V11.5h7.4Z"/>
    <path class="st0" d="M351,11.1c2.5,0,4.3.9,5.4,2.2V2.3h7.4v31.9h-7.4v-1.9c-1.2,1.5-3.1,2.3-5.3,2.3-6.2,0-10.1-4.5-10.1-11.7s4-11.7,10-11.7ZM352.4,28.2c2.4,0,4.3-1.7,4.3-5.4s-1.8-5.4-4.3-5.4-4.3,1.7-4.3,5.4,1.8,5.4,4.3,5.4Z"/>
    <path class="st0" d="M374.4,24.7c.4,2.7,2.2,4.1,5,4.1s3.4-.8,4.5-2.4l5.7,2.1c-1.9,3.5-5.1,6-10.6,6-8.2,0-11.4-6.3-11.4-11.7s3.7-11.7,11.5-11.7,11,6.5,11,11.2v2.3h-15.7ZM374.5,19.9h8.7c-.3-1.9-1.8-3.5-4.3-3.5s-3.7,1.1-4.4,3.5Z"/>
    <path class="st0" d="M405.6,2.7h8.5l6.4,17.3,6.4-17.3h8.5v31.5h-7.2v-16.2l-4.9,13.3h-5.7l-4.9-13.3v16.2h-7.2V2.7Z"/>
    <path class="st0" d="M454.5,34.2v-2.6c-1.2,1.7-3.4,3-6.4,3-4.9,0-7.6-2.7-7.6-8.2v-14.8h7.4v13.2c0,2.1.9,3.2,2.6,3.2,2.5,0,4-2.2,4-6.5v-9.9h7.4v22.7h-7.4ZM450.2,2.3h9.4l-6.8,7.2h-5.4l2.8-7.2Z"/>
    <path class="st0" d="M482,14.9l-4,3.7c-1-1.3-2.2-2-3.4-2s-1.5.5-1.5,1.3.7,1.4,2.7,2.1c4.4,1.5,7.3,2.6,7.3,7s-3.1,7.6-8.3,7.6-8-2.9-9.6-6.2l5.4-2.9c.8,2.1,2.1,3.5,4.1,3.5s2-.5,2-1.5c0-1.6-2.4-2.1-4.9-3.1-2.8-1.1-5-3-5-6.6s3-6.6,7.8-6.6,6,1.5,7.5,3.8Z"/>
    <path class="st0" d="M490.1,0c2.5,0,4.4,1.9,4.4,4.4s-1.9,4.4-4.4,4.4-4.4-1.9-4.4-4.4,1.9-4.4,4.4-4.4ZM493.7,11.5v22.7h-7.4V11.5h7.4Z"/>
    <path class="st0" d="M519.9,27.9c-2,4.5-5.6,6.6-10.9,6.6s-11.7-5.3-11.7-11.7,4.3-11.7,11.7-11.7,9.1,2.2,10.9,6.7l-6.5,2.7c-.7-1.8-2-3.1-4.1-3.1s-4.3,2.3-4.3,5.4,1.3,5.4,4.4,5.4,3.3-1.1,4.3-3l6.3,2.7Z"/>
    <path class="st0" d="M532.6,11.1c2.5,0,4.7.8,5.9,2.2v-1.8h7.4v22.7h-7.4v-1.9c-1.2,1.5-3.6,2.3-5.8,2.3-6.2,0-10.3-4.5-10.3-11.7s4.1-11.7,10.2-11.7ZM534.2,28.2c2.4,0,4.6-1.7,4.6-5.4s-2.2-5.4-4.6-5.4-4.6,1.7-4.6,5.4,2.2,5.4,4.6,5.4Z"/>
    <path class="st0" d="M565.8,14.9l-4,3.7c-1-1.3-2.2-2-3.4-2s-1.5.5-1.5,1.3.7,1.4,2.7,2.1c4.4,1.5,7.3,2.6,7.3,7s-3.1,7.6-8.3,7.6-8-2.9-9.6-6.2l5.4-2.9c.8,2.1,2.1,3.5,4.1,3.5s2-.5,2-1.5c0-1.6-2.4-2.1-4.9-3.1-2.8-1.1-5-3-5-6.6s3-6.6,7.8-6.6,6,1.5,7.5,3.8Z"/>
  </g>
  <rect class="st0" y="13.1" width="50.9" height="11.5"/>
</svg>