<?xml version="1.0" encoding="UTF-8"?>
<svg id="Capa_1" xmlns="http://www.w3.org/2000/svg" version="1.1" viewBox="0 0 103 46.4">
  <!-- Generator: Adobe Illustrator 29.0.0, SVG Export Plug-In . SVG Version: 2.1.0 Build 186)  -->
  <defs>
    <style>
      .st0 {
        fill: #333;
      }
    </style>
  </defs>
  <path class="st0" d="M11.8,5.4c-2.9,0-8.3,1.5-10.7,11.5C0,21.2-.4,25.8.5,31.2c.8,5,2.3,9.3,3.3,11.7.3.8.9,1.7,1.3,2.2,1.2,1.5,3.2,1.4,4,1,.9-.4,2-1.5,1.6-4-.2-1.2-.7-2.9-1-3.9-.9-3-2.1-6.6-2.2-9.1-.1-3.4,1.2-3.9,2.1-4.1,1.5-.3,2.8,1.3,4,3.4,1.4,2.5,3.9,6.9,5.9,10.2,1.8,3,5.2,6.3,10.5,6.1,5.5-.2,9.5-2.3,11.6-8.9,1.6-4.9,2.6-8.6,4.3-12.4,2-4.3,4.6-6.6,6.8-5.9,2,.7,2.6,2.7,2.6,5.6,0,2.6-.3,5.5-.5,7.6,0,.8-.2,2.3-.2,3.2.1,1.7.8,3.4,2.7,3.6,2,.3,3.6-1.3,4.3-3.3.3-.8.5-1.9.6-2.8.6-4.2.7-7,.5-11.3-.3-5-1.3-9.6-3-13.6C58.1,2.7,55.4.2,52,0c-3.7-.2-8,2.2-10.3,7.1-2.1,4.4-3.7,9-4.8,11.3-1,2.4-2.5,3.8-4.8,4.1-2.8.3-5.3-1.8-7-4.7-1.6-2.5-4.6-7.4-6.3-9-1.5-1.5-3.3-3.4-7-3.4"/>
  <polygon class="st0" points="103 18.2 92 18.2 92 7.2 83.1 7.2 83.1 18.2 72.2 18.2 72.2 27 83.1 27 83.1 38 92 38 92 27 103 27 103 18.2"/>
</svg>