<?xml version="1.0" encoding="UTF-8"?>
<svg id="Capa_1" xmlns="http://www.w3.org/2000/svg" version="1.1" viewBox="0 0 95.3 52.4">
  <!-- Generator: Adobe Illustrator 29.0.0, SVG Export Plug-In . SVG Version: 2.1.0 Build 186)  -->
  <defs>
    <style>
      .st0 {
        fill: #b50c34;
      }
    </style>
  </defs>
  <g>
    <g>
      <path class="st0" d="M75.3,46.9c.2,1-.2,1.3-.9,2-2.5,2.4-6.6,2.2-6.5-2l-3.8,2.6c-4.1,2.1-8.7,0-8.4-4.9.4-5.2,8-7,11.9-8.7v-.2c0-2.1.7-5-1.5-6.3s-4.3-.6-5.1.9-.1,1.8-.2,2.9c0,2.7-3.9,2.8-4.2.2s4.1-5.3,6.9-5.5c11.5-.9,7.5,10.7,8.2,18s.7,2.1,2.3,1.7.8-.6,1.3-.6ZM67.8,37c-3.6,1.1-9.2,3.5-7.6,8.2s1.3,2.2,2.5,2.3,5.1-1,5.1-2.5v-8Z"/>
      <path class="st0" d="M94.4,36.5h-14.8c-.2,4.3,1.8,10.1,6.7,10.6s6.2-1.8,8.2-4.9h.7c.2.4-1.2,2.9-1.5,3.3-2.4,3.6-6.3,5.6-10.7,4.7-6.7-1.4-8-9.9-6.2-15.4,3.3-9.8,17.3-9.3,17.5,1.8ZM89.7,35c-.6-3.5-1.3-5.8-5.4-5.5s-4.2,2.9-4.4,5.5h9.9Z"/>
      <path class="st0" d="M0,3.2C.5,1.3,1.7.2,3.7,0h44.9c2.1.2,3.4,1.3,3.7,3.4-.2,15.5.3,31.2-.2,46.7l-.5.7c-.2-1.1-1-2.1-1.8-2.7-3-2.2-9.2-.9-12.8-1.7s-1.2-2.7.1-3.8c3.7.9,7.8.5,10.4-2.6s2-6,.2-8.5h3.7c.7,0,.9-1.8.3-2.2-1.7-.2-4,.2-5.6,0s-1-.6-1.4-.7c-3-1.2-6.6-1.2-9.4.7-4.2,2.9-4.6,8.8-.7,12.1s1.4.7,1.2,1c-2.6,1.8-5.8,5.4-1.4,7.5l-2.5,2.7H3.2c-1.7-.4-2.8-1.5-3.2-3.2V3.2ZM26.2,27.6c-1-.3-.9.4-1.4.7-.7.4-3.7-.7-4.8-.7-4.6-.2-8.2,3.7-6.8,8.2s9.9,5.2,10.8,9-.6,3.9-2.6,4.2c-4.1.6-6.8-2.8-7.5-6.5h-.8c0-.1,0,7.8,0,7.8.8.3,1-.7,1.7-.7s2.8.7,3.7.8c5,.7,10.1-1.9,9.2-7.6s-11.1-5.9-11.8-10.2,3.6-4,5.9-3,3,3.5,3.5,5.6h.9s0-7.5,0-7.5Z"/>
    </g>
    <path class="st0" d="M39.2,29c6-1,7.1,10,3.5,12.2-6.8,4.1-9.4-11.2-3.5-12.2Z"/>
  </g>
  <path class="st0" d="M34,52.4c.1-.5,1.4-2.4,1.8-2.5,1.3.2,2.6.4,3.9.4,2.1.1,8-.1,9.4,1s.6.5.5.8l-.6.2h-15.1Z"/>
</svg>